<?xml version="1.0" encoding="utf-8"?>
<svg version="1.1" xmlns="http://www.w3.org/2000/svg" xmlns:xlink="http://www.w3.org/1999/xlink" x="0px" y="0px"
	 viewBox="0 0 512 512" style="enable-background:new 0 0 512 512;" xml:space="preserve">
	 	 <style>
    path {
      fill: rgb(28, 61, 250);
    }
    @media (prefers-color-scheme: dark) {
      path {
        fill: white;
      }
    }
  </style>
<path d="M399.3,19.4L353.7,86c-51.7,0-217.4,0-218.2,0c-17,0.9-31.5,14.3-31.5,31.6c0,17.7,15.9,32.4,33.7,32.4h173.5L262,220H135.9
	v0.9c-17,0.4-31.9,14.6-31.9,31.9c0,17.3,14.9,30.3,31.9,31.2H218l-51.7,76h-27.9c-17.4,0-33.6,14.2-34.5,31.4
	c-0.4,13.8,8.9,25.4,21,30.6l-48.7,71c-0.9,1.3,0,3,1.7,3h31.1c0.9,0,1.7-0.4,2.2-1.3L435.6,19c0.9-1.3,0-3-1.7-3h-28.5
	C402.9,16,400.6,17.3,399.3,19.4z"/>
</svg>
